<svg width="240" height="100" viewBox="0 0 240 100" fill="none" xmlns="http://www.w3.org/2000/svg">
<path d="M0 50C0 22.3858 22.3858 0 50 0H190C217.614 0 240 22.3858 240 50C240 77.6142 217.614 100 190 100H50C22.3858 100 0 77.6142 0 50Z" fill="#46DE99"/>
<path d="M42.568 44.752C44.5733 41.7227 46.984 40.208 49.8 40.208C54.152 40.208 57.3947 42.064 59.528 45.776C59.9973 45.136 60.552 44.4747 61.192 43.792C61.8747 43.0667 62.9413 42.2987 64.392 41.488C65.8427 40.6347 67.336 40.208 68.872 40.208C72.2853 40.208 75.144 41.5307 77.448 44.176C79.752 46.7787 80.904 51.1093 80.904 57.168V68.368C80.904 69.3493 80.8613 70.096 80.776 70.608C80.7333 71.0773 80.5413 71.632 80.2 72.272C79.6453 73.424 78.0027 74 75.272 74C72.584 74 70.9413 73.4027 70.344 72.208C70.0453 71.568 69.8533 71.0133 69.768 70.544C69.7253 70.032 69.704 69.2853 69.704 68.304V57.104C69.704 53.392 68.3813 51.536 65.736 51.536C64.2427 51.536 63.2187 52.0267 62.664 53.008C62.152 53.9893 61.896 55.376 61.896 57.168V68.368C61.896 69.392 61.8533 70.1387 61.768 70.608C61.7253 71.0773 61.5333 71.632 61.192 72.272C60.5947 73.424 58.9307 74 56.2 74C53.512 74 51.8693 73.4027 51.272 72.208C50.9733 71.568 50.7813 71.0133 50.696 70.544C50.6533 70.032 50.632 69.2853 50.632 68.304V57.104C50.632 53.392 49.3093 51.536 46.664 51.536C44.104 51.536 42.824 53.392 42.824 57.104V68.432C42.824 69.4133 42.7813 70.16 42.696 70.672C42.6533 71.1413 42.4613 71.696 42.12 72.336C41.48 73.4453 39.816 74 37.128 74C34.44 74 32.7973 73.424 32.2 72.272C31.9013 71.632 31.7093 71.0773 31.624 70.608C31.5813 70.1387 31.56 69.392 31.56 68.368V45.84C31.56 44.8587 31.5813 44.1333 31.624 43.664C31.7093 43.152 31.9227 42.5973 32.264 42C32.904 40.848 34.4187 40.272 36.808 40.272C39.1973 40.272 40.7547 40.656 41.48 41.424C42.2053 42.192 42.568 43.3013 42.568 44.752Z" fill="white"/>
<path d="M107.885 43.856C108.141 41.4667 109.827 40.272 112.941 40.272C114.605 40.272 115.843 40.4 116.654 40.656C117.464 40.912 118.019 41.36 118.318 42C118.659 42.64 118.851 43.216 118.894 43.728C118.979 44.1973 119.021 44.9227 119.021 45.904V68.304C119.021 69.2853 118.979 70.032 118.894 70.544C118.851 71.0133 118.68 71.568 118.382 72.208C117.784 73.3173 116.312 73.872 113.965 73.872C111.661 73.872 110.104 73.5947 109.294 73.04C108.526 72.4427 108.078 71.5893 107.95 70.48C106.371 72.7413 103.726 73.872 100.014 73.872C96.3442 73.872 92.9308 72.1867 89.7735 68.816C86.6162 65.4453 85.0375 61.5413 85.0375 57.104C85.0375 52.624 86.6162 48.72 89.7735 45.392C92.9735 42.0213 96.4722 40.336 100.27 40.336C101.72 40.336 103.043 40.592 104.238 41.104C105.432 41.616 106.264 42.1067 106.734 42.576C107.203 43.0027 107.587 43.4293 107.885 43.856ZM96.2375 57.168C96.2375 58.576 96.7922 59.856 97.9015 61.008C99.0108 62.1173 100.355 62.672 101.934 62.672C103.512 62.672 104.814 62.096 105.838 60.944C106.904 59.792 107.438 58.5333 107.438 57.168C107.438 55.76 106.926 54.4587 105.902 53.264C104.92 52.0693 103.576 51.472 101.869 51.472C100.205 51.472 98.8402 52.0693 97.7735 53.264C96.7495 54.4587 96.2375 55.76 96.2375 57.168Z" fill="white"/>
<path d="M132.699 35.28C131.931 35.4933 130.885 35.6 129.562 35.6C128.24 35.6 127.194 35.472 126.426 35.216C125.658 34.96 125.104 34.5333 124.762 33.936C124.464 33.296 124.272 32.7413 124.187 32.272C124.144 31.76 124.122 31.0133 124.122 30.032C124.122 29.0507 124.144 28.3253 124.187 27.856C124.272 27.3867 124.464 26.8533 124.762 26.256C125.36 25.1467 127.003 24.592 129.691 24.592C132.251 24.592 133.85 25.1467 134.49 26.256C134.789 26.8107 134.96 27.3227 135.003 27.792C135.088 28.2613 135.13 28.9653 135.13 29.904V30.288C135.13 31.2267 135.088 31.9307 135.003 32.4C134.96 32.8693 134.768 33.4027 134.426 34C134.085 34.5973 133.509 35.024 132.699 35.28ZM126.491 40.464C127.301 40.208 128.368 40.08 129.691 40.08C131.013 40.08 132.059 40.208 132.827 40.464C133.595 40.72 134.128 41.168 134.426 41.808C134.768 42.4053 134.96 42.96 135.003 43.472C135.088 43.9413 135.13 44.6667 135.13 45.648V72.016C135.13 77.008 133.403 80.9973 129.947 83.984C126.491 86.9707 122.693 88.464 118.554 88.464C117.573 88.464 116.848 88.4213 116.379 88.336C115.909 88.2933 115.376 88.1227 114.779 87.824C113.669 87.2267 113.115 85.6693 113.115 83.152C113.115 80.6347 113.584 79.056 114.522 78.416C115.418 77.776 116.656 77.456 118.234 77.456C119.77 77.456 121.136 77.0293 122.33 76.176C123.525 75.3227 124.122 73.7867 124.122 71.568V45.2C124.122 43.7067 124.315 42.6187 124.699 41.936C125.125 41.2107 125.723 40.72 126.491 40.464Z" fill="white"/>
<path d="M140.247 45.904C140.247 44.9227 140.269 44.1973 140.311 43.728C140.397 43.216 140.589 42.64 140.887 42C141.485 40.8907 143.149 40.336 145.88 40.336C147.928 40.336 149.378 40.6987 150.232 41.424C150.957 42.0213 151.341 42.9387 151.383 44.176C151.426 44.6027 151.447 45.2213 151.447 46.032V68.432C151.447 69.4133 151.405 70.16 151.32 70.672C151.277 71.1413 151.085 71.696 150.743 72.336C150.189 73.4453 148.546 74 145.816 74C143.128 74 141.485 73.424 140.887 72.272C140.589 71.632 140.397 71.0773 140.311 70.608C140.269 70.1387 140.247 69.392 140.247 68.368V45.904ZM150.743 34.064C150.445 34.6613 149.89 35.088 149.079 35.344C148.269 35.6 147.181 35.728 145.816 35.728C144.493 35.728 143.426 35.6 142.615 35.344C141.805 35.088 141.229 34.64 140.887 34C140.589 33.36 140.397 32.8053 140.311 32.336C140.269 31.824 140.247 31.0773 140.247 30.096C140.247 29.1147 140.269 28.3893 140.311 27.92C140.397 27.408 140.589 26.8533 140.887 26.256C141.485 25.104 143.149 24.528 145.88 24.528C148.568 24.528 150.189 25.104 150.743 26.256C151.085 26.896 151.277 27.472 151.32 27.984C151.405 28.4533 151.447 29.1787 151.447 30.16C151.447 31.1413 151.405 31.888 151.32 32.4C151.277 32.8693 151.085 33.424 150.743 34.064Z" fill="white"/>
<path d="M32.8 22.22C32.8 21.9133 32.8067 21.6867 32.82 21.54C32.8467 21.38 32.9067 21.2 33 21C33.1867 20.6533 33.7067 20.48 34.56 20.48C35.2 20.48 35.6533 20.5933 35.92 20.82C36.1467 21.0067 36.2667 21.2933 36.28 21.68C36.2933 21.8133 36.3 22.0067 36.3 22.26V29.26C36.3 29.5667 36.2867 29.8 36.26 29.96C36.2467 30.1067 36.1867 30.28 36.08 30.48C35.9067 30.8267 35.3933 31 34.54 31C33.7 31 33.1867 30.82 33 30.46C32.9067 30.26 32.8467 30.0867 32.82 29.94C32.8067 29.7933 32.8 29.56 32.8 29.24V22.22ZM36.08 18.52C35.9867 18.7067 35.8133 18.84 35.56 18.92C35.3067 19 34.9667 19.04 34.54 19.04C34.1267 19.04 33.7933 19 33.54 18.92C33.2867 18.84 33.1067 18.7 33 18.5C32.9067 18.3 32.8467 18.1267 32.82 17.98C32.8067 17.82 32.8 17.5867 32.8 17.28C32.8 16.9733 32.8067 16.7467 32.82 16.6C32.8467 16.44 32.9067 16.2667 33 16.08C33.1867 15.72 33.7067 15.54 34.56 15.54C35.4 15.54 35.9067 15.72 36.08 16.08C36.1867 16.28 36.2467 16.46 36.26 16.62C36.2867 16.7667 36.3 16.9933 36.3 17.3C36.3 17.6067 36.2867 17.84 36.26 18C36.2467 18.1467 36.1867 18.32 36.08 18.52Z" fill="white"/>
<path d="M44.0977 25.72L46.7577 27.92C47.091 28.2 47.2977 28.4133 47.3777 28.56C47.471 28.7067 47.5177 28.8467 47.5177 28.98C47.5177 29.3 47.311 29.7333 46.8977 30.28C46.4443 30.84 46.0443 31.12 45.6977 31.12C45.4043 31.12 44.9977 30.9267 44.4777 30.54L44.2777 30.4C43.971 30.1467 43.4977 29.7067 42.8577 29.08C42.2177 28.44 41.731 27.9867 41.3977 27.72V29.26C41.3977 29.5667 41.3843 29.8 41.3577 29.96C41.3443 30.1067 41.2843 30.28 41.1777 30.48C41.0043 30.8267 40.491 31 39.6377 31C38.7977 31 38.2843 30.82 38.0977 30.46C38.0043 30.26 37.9443 30.0867 37.9177 29.94C37.9043 29.78 37.8977 29.5467 37.8977 29.24V17.26C37.8977 16.9533 37.9043 16.7267 37.9177 16.58C37.9443 16.42 38.0043 16.24 38.0977 16.04C38.2843 15.68 38.8043 15.5 39.6577 15.5C40.2977 15.5 40.751 15.6133 41.0177 15.84C41.2443 16.0267 41.3643 16.32 41.3777 16.72C41.391 16.84 41.3977 17.0267 41.3977 17.28V23.62C41.6377 23.42 41.9977 23.08 42.4777 22.6C42.971 22.12 43.3377 21.78 43.5777 21.58L43.8177 21.42C44.2843 21.06 44.6843 20.88 45.0177 20.88C45.351 20.88 45.731 21.1533 46.1577 21.7C46.5977 22.2333 46.8177 22.6533 46.8177 22.96C46.8177 23.2667 46.571 23.6267 46.0777 24.04L44.0977 25.72Z" fill="white"/>
<path d="M47.7148 25.74C47.7148 24.14 48.2748 22.82 49.3948 21.78C50.5148 20.74 51.7948 20.22 53.2348 20.22C54.6748 20.22 55.9482 20.74 57.0548 21.78C58.1615 22.8067 58.7148 24.12 58.7148 25.72C58.7148 26.8267 58.4282 27.8133 57.8548 28.68C57.2815 29.5333 56.5815 30.1667 55.7548 30.58C54.9415 30.98 54.0948 31.18 53.2148 31.18C52.3348 31.18 51.4815 30.9667 50.6548 30.54C49.8282 30.1 49.1282 29.46 48.5548 28.62C47.9948 27.7667 47.7148 26.8067 47.7148 25.74ZM51.8948 27.18C52.3215 27.5 52.7548 27.66 53.1948 27.66C53.6348 27.66 54.0748 27.4933 54.5148 27.16C54.9548 26.8267 55.1748 26.3333 55.1748 25.68C55.1748 25.0267 54.9682 24.54 54.5548 24.22C54.1415 23.9 53.6948 23.74 53.2148 23.74C52.7348 23.74 52.2882 23.9067 51.8748 24.24C51.4615 24.5733 51.2548 25.0667 51.2548 25.72C51.2548 26.36 51.4682 26.8467 51.8948 27.18Z" fill="white"/>
<path d="M190.25 57.25L177.562 69.9375L163.062 55.4375L175.75 42.75L190.25 57.25Z" fill="#FFBB04"/>
<path d="M209.666 30.5836L202.416 23.3336C202.064 23.0446 201.617 22.8969 201.162 22.9192C200.707 22.9416 200.277 23.1324 199.955 23.4545C199.632 23.7767 199.442 24.2071 199.419 24.6621C199.397 25.1172 199.545 25.5642 199.834 25.9164L200.173 26.2336L187.69 35.6133L179.012 37.3578C178.665 37.4279 178.344 37.5925 178.084 37.8336L158.916 57.0234C158.407 57.5271 158.002 58.1268 157.726 58.788C157.45 59.4491 157.308 60.1585 157.308 60.875C157.308 61.5915 157.45 62.3009 157.726 62.962C158.002 63.6232 158.407 64.2229 158.916 64.7266L168.273 74.0836C168.777 74.5932 169.377 74.9979 170.038 75.274C170.699 75.5502 171.408 75.6924 172.125 75.6924C172.842 75.6924 173.551 75.5502 174.212 75.274C174.873 74.9979 175.473 74.5932 175.977 74.0836L195.166 54.9164C195.407 54.6565 195.572 54.335 195.642 53.9875L197.387 45.3102L206.766 32.8266L207.084 33.1664C207.43 33.5014 207.893 33.6887 208.375 33.6887C208.857 33.6887 209.32 33.5014 209.666 33.1664C210.007 32.8228 210.198 32.3587 210.198 31.875C210.198 31.3913 210.007 30.9272 209.666 30.5836ZM175.75 45.3102L187.69 57.25L177.562 67.3773L165.623 55.4375L175.75 45.3102ZM170.834 71.5234L161.477 62.1664C161.305 61.9978 161.169 61.7967 161.076 61.575C160.984 61.3533 160.936 61.1154 160.936 60.875C160.936 60.6346 160.984 60.3967 161.076 60.175C161.169 59.9533 161.305 59.7522 161.477 59.5836L163.062 57.9977L175.002 69.9375L173.416 71.5234C173.073 71.8638 172.609 72.0547 172.125 72.0547C171.641 72.0547 171.177 71.8638 170.834 71.5234ZM194.238 43.475C194.082 43.6914 193.973 43.9386 193.92 44.2L192.198 52.7414L190.25 54.6898L178.31 42.75L180.259 40.8016L188.8 39.0797C189.061 39.0266 189.309 38.9185 189.525 38.7625L202.756 28.8391L204.161 30.2437L194.238 43.475Z" fill="#F6FFF6"/>
</svg>
